STARTFONT 2.1
COMMENT
COMMENT Converted from OpenType font "manrope-bold.otf" by "otf2bdf 3.0".
COMMENT
FONT -FreeType-Manrope-Bold-R-Normal--35-250-100-100-P-169-ISO10646-1
SIZE 25 100 100
FONTBOUNDINGBOX 35 44 -1 -8
STARTPROPERTIES 19
FOUNDRY "FreeType"
FAMILY_NAME "Manrope"
WEIGHT_NAME "Bold"
SLANT "R"
SETWIDTH_NAME "Normal"
ADD_STYLE_NAME ""
PIXEL_SIZE 35
POINT_SIZE 250
RESOLUTION_X 100
RESOLUTION_Y 100
SPACING "P"
AVERAGE_WIDTH 169
CHARSET_REGISTRY "ISO10646"
CHARSET_ENCODING "1"
FONT_ASCENT 37
FONT_DESCENT 10
COPYRIGHT "Copyright 2019-2021 The Manrope Project Authors (https://github.com/sharanda/manrope)"
_OTF_FONTFILE "manrope-bold.otf"
_OTF_PSNAME "Manrope-Bold"
ENDPROPERTIES
CHARS 191
STARTCHAR 0020
ENCODING 32
SWIDTH 201 0
DWIDTH 7 0
BBX 0 0 0 0
BITMAP
ENDCHAR
STARTCHAR 0021
ENCODING 33
SWIDTH 374 0
DWIDTH 13 0
BBX 4 25 4 0
BITMAP
F0
F0
F0
F0
F0
F0
F0
F0
F0
F0
F0
F0
F0
F0
F0
F0
F0
F0
F0
00
00
F0
F0
F0
F0
ENDCHAR
STARTCHAR 0022
ENCODING 34
SWIDTH 460 0
DWIDTH 16 0
BBX 11 6 2 19
BITMAP
F1E0
F1E0
F1E0
F1E0
F1E0
F1E0
ENDCHAR
STARTCHAR 0023
ENCODING 35
SWIDTH 921 0
DWIDTH 32 0
BBX 28 25 2 0
BITMAP
001E1F00
001E1E00
001E1E00
003C1E00
003C3C00
003C3C00
1FFFFFF0
1FFFFFF0
1FFFFFF0
3FFFFFE0
00F07800
00F0F000
00F0F000
00F0F000
7FFFFFC0
7FFFFFC0
FFFFFF80
FFFFFF80
03C1E000
03C3C000
03C3C000
0783C000
0787C000
07878000
07878000
ENDCHAR
STARTCHAR 0024
ENCODING 36
SWIDTH 633 0
DWIDTH 22 0
BBX 19 31 1 -3
BITMAP
00F000
00F000
00F000
03FC00
0FFF00
1FFF80
3FFFC0
3E07C0
7C03E0
7801E0
7C0100
7C0000
3F0000
3FF000
1FFE00
07FF80
01FFC0
001FE0
0003E0
0001E0
F801E0
7801E0
7C01E0
7E03E0
3FFFC0
1FFF80
0FFF00
03FC00
00F000
00F000
00F000
ENDCHAR
STARTCHAR 0025
ENCODING 37
SWIDTH 892 0
DWIDTH 31 0
BBX 27 25 2 0
BITMAP
0F800100
3FC00380
7FE007C0
7FF00F80
F0F01F00
F0783E00
F0787C00
F0F0F800
7FF1F000
7FE3E000
3FC7C000
0F8F8000
001F0000
003E3E00
00FC7F80
01F8FFC0
03F1FFE0
07E1E1E0
0FC1C0E0
1F81C0E0
3F01E1E0
7E01FFE0
3C00FFC0
18007F80
10003E00
ENDCHAR
STARTCHAR 0026
ENCODING 38
SWIDTH 662 0
DWIDTH 23 0
BBX 21 25 2 0
BITMAP
03F000
0FFC00
1FFE00
3FFF00
7E1F00
7C0E00
780000
780000
7C0000
3E0000
3F0000
1F8000
3FC3C0
7FE3C0
F9F3C0
F0FBC0
F07FC0
F03FC0
F01FC0
F80FC0
FC0FE0
7FFFF0
3FFFF8
1FFE70
07F820
ENDCHAR
STARTCHAR 0027
ENCODING 39
SWIDTH 259 0
DWIDTH 9 0
BBX 4 6 2 19
BITMAP
F0
F0
F0
F0
F0
F0
ENDCHAR
STARTCHAR 0028
ENCODING 40
SWIDTH 460 0
DWIDTH 16 0
BBX 9 36 5 -7
BITMAP
0200
0700
0F80
0F00
1F00
1E00
3C00
3C00
7800
7800
7800
F000
F000
F000
F000
F000
F000
F000
F000
F000
F000
F000
F000
F000
7000
7800
7800
7800
3C00
3C00
1E00
1F00
0F00
0F80
0700
0200
ENDCHAR
STARTCHAR 0029
ENCODING 41
SWIDTH 460 0
DWIDTH 16 0
BBX 9 36 2 -7
BITMAP
2000
F000
F000
F800
7C00
3C00
3E00
1E00
1E00
0F00
0F00
0F00
0F00
0780
0780
0780
0780
0780
0780
0780
0780
0780
0780
0F00
0F00
0F00
0F00
1E00
1E00
3C00
3C00
7C00
F800
F000
F000
2000
ENDCHAR
STARTCHAR 002A
ENCODING 42
SWIDTH 460 0
DWIDTH 16 0
BBX 13 12 1 13
BITMAP
0700
0700
0700
7770
7FF8
FFF8
3FE0
0F80
1FC0
3DE0
3CE0
18C0
ENDCHAR
STARTCHAR 002B
ENCODING 43
SWIDTH 576 0
DWIDTH 20 0
BBX 16 15 2 5
BITMAP
03C0
03C0
03C0
03C0
03C0
03C0
FFFF
FFFF
FFFF
03C0
03C0
03C0
03C0
03C0
03C0
ENDCHAR
STARTCHAR 002C
ENCODING 44
SWIDTH 316 0
DWIDTH 11 0
BBX 4 9 2 -5
BITMAP
F0
F0
F0
F0
30
30
70
E0
80
ENDCHAR
STARTCHAR 002D
ENCODING 45
SWIDTH 432 0
DWIDTH 15 0
BBX 11 3 2 9
BITMAP
FFE0
FFE0
FFE0
ENDCHAR
STARTCHAR 002E
ENCODING 46
SWIDTH 316 0
DWIDTH 11 0
BBX 4 4 3 0
BITMAP
F0
F0
F0
F0
ENDCHAR
STARTCHAR 002F
ENCODING 47
SWIDTH 432 0
DWIDTH 15 0
BBX 11 25 2 0
BITMAP
01E0
03E0
03C0
03C0
03C0
0780
0780
0780
0F80
0F00
0F00
0F00
1F00
1E00
1E00
1E00
3E00
3C00
3C00
3C00
7800
7800
7800
F800
F000
ENDCHAR
STARTCHAR 0030
ENCODING 48
SWIDTH 662 0
DWIDTH 23 0
BBX 18 25 2 0
BITMAP
03F800
0FFE00
1FFF00
3FFF80
7E0F80
7C07C0
7803C0
F803C0
F803C0
F803C0
F803C0
F803C0
F803C0
F803C0
F803C0
F803C0
F803C0
F803C0
7803C0
7C07C0
7E0F80
3FFF80
1FFF00
0FFE00
03F800
ENDCHAR
STARTCHAR 0031
ENCODING 49
SWIDTH 432 0
DWIDTH 15 0
BBX 9 25 2 0
BITMAP
0F80
3F80
7F80
FF80
FF80
E780
C780
0780
0780
0780
0780
0780
0780
0780
0780
0780
0780
0780
0780
0780
0780
0780
0780
0780
0780
ENDCHAR
STARTCHAR 0032
ENCODING 50
SWIDTH 604 0
DWIDTH 21 0
BBX 17 25 2 0
BITMAP
07F000
1FFC00
3FFE00
7FFE00
7C1F00
F80F00
F00F80
F00780
000780
000F80
000F80
001F00
003F00
007E00
00FC00
03F800
07F000
0FC000
1F8000
3F0000
7E0000
FFFF80
FFFF80
FFFF80
FFFF80
ENDCHAR
STARTCHAR 0033
ENCODING 51
SWIDTH 576 0
DWIDTH 20 0
BBX 17 25 1 0
BITMAP
7FFF80
7FFF80
7FFF80
7FFF80
001F00
003E00
007C00
01F800
03F000
07F000
07FC00
07FE00
03FF00
001F00
000F80
000780
000780
000780
180F80
F80F80
7C1F00
3FFF00
3FFE00
0FFC00
03E000
ENDCHAR
STARTCHAR 0034
ENCODING 52
SWIDTH 604 0
DWIDTH 21 0
BBX 17 25 2 0
BITMAP
01F000
01F000
01E000
03E000
03C000
07C000
078000
0F8000
0F8000
1F0000
1F1E00
3E1E00
3E1E00
7C1E00
7C1E00
F81E00
F81E00
FFFF80
FFFF80
FFFF80
FFFF80
001E00
001E00
001E00
001E00
ENDCHAR
STARTCHAR 0035
ENCODING 53
SWIDTH 576 0
DWIDTH 20 0
BBX 17 25 2 0
BITMAP
7FFE00
7FFE00
7FFE00
7FFE00
780000
780000
780000
780000
780000
7BE000
7FF800
7FFE00
7FFE00
783F00
000F00
000F00
000F80
000F80
700F00
F81F00
FC3F00
7FFE00
3FFC00
1FF800
07E000
ENDCHAR
STARTCHAR 0036
ENCODING 54
SWIDTH 633 0
DWIDTH 22 0
BBX 18 25 2 0
BITMAP
03F800
0FFE00
1FFF00
3FFE00
7E0C00
7C0000
780000
F80000
F80000
F9F800
FFFE00
FFFF00
FFFF00
FE0F80
FC0780
F807C0
F807C0
F807C0
7807C0
7C0F80
7E1F80
3FFF00
1FFE00
0FFC00
03F000
ENDCHAR
STARTCHAR 0037
ENCODING 55
SWIDTH 547 0
DWIDTH 19 0
BBX 16 25 1 0
BITMAP
FFFF
FFFF
FFFF
FFFF
001F
001E
003E
003C
007C
007C
0078
00F8
00F0
01F0
01E0
01E0
03E0
03C0
07C0
0780
0780
0F80
0F00
1F00
1E00
ENDCHAR
STARTCHAR 0038
ENCODING 56
SWIDTH 604 0
DWIDTH 21 0
BBX 17 25 2 0
BITMAP
07F000
1FFC00
3FFE00
3FFF00
7C1F00
780F00
780F00
780F00
780F00
7C1F00
3FFE00
3FFE00
3FFE00
7FFF00
7C1F00
F80F80
F80780
F80780
F80780
F80F80
7C1F80
7FFF00
3FFE00
1FFC00
07F000
ENDCHAR
STARTCHAR 0039
ENCODING 57
SWIDTH 633 0
DWIDTH 22 0
BBX 17 25 2 0
BITMAP
03E000
0FF800
3FFE00
7FFE00
7C3F00
F80F80
F00F80
F00780
F00780
F00780
F80F80
7C1F80
7FFF80
3FFF80
1FF780
07E780
000780
000780
000F80
000F80
1C3F00
3FFF00
3FFE00
1FF800
07E000
ENDCHAR
STARTCHAR 003A
ENCODING 58
SWIDTH 345 0
DWIDTH 12 0
BBX 4 14 4 2
BITMAP
F0
F0
F0
F0
00
00
00
00
00
00
F0
F0
F0
F0
ENDCHAR
STARTCHAR 003B
ENCODING 59
SWIDTH 345 0
DWIDTH 12 0
BBX 4 24 4 -5
BITMAP
F0
F0
F0
F0
00
00
00
00
00
00
00
00
00
00
00
F0
F0
F0
F0
30
30
70
E0
80
ENDCHAR
STARTCHAR 003C
ENCODING 60
SWIDTH 633 0
DWIDTH 22 0
BBX 11 16 5 2
BITMAP
0080
01C0
03E0
07C0
0F80
1F00
3E00
7C00
F800
7C00
3E00
1F00
0F80
07C0
03C0
0180
ENDCHAR
STARTCHAR 003D
ENCODING 61
SWIDTH 748 0
DWIDTH 26 0
BBX 18 9 4 8
BITMAP
FFFFC0
FFFFC0
FFFFC0
000000
000000
000000
FFFFC0
FFFFC0
FFFFC0
ENDCHAR
STARTCHAR 003E
ENCODING 62
SWIDTH 633 0
DWIDTH 22 0
BBX 11 16 6 2
BITMAP
2000
7000
F800
7C00
3E00
1F00
0F80
07C0
03E0
07C0
0F80
1F00
3E00
7C00
7800
3000
ENDCHAR
STARTCHAR 003F
ENCODING 63
SWIDTH 547 0
DWIDTH 19 0
BBX 15 25 2 0
BITMAP
07E0
1FF8
3FFC
7FFE
F83E
F01E
F01E
001E
001E
003E
007C
00FC
01F8
03F0
03E0
07C0
07C0
0780
0000
0000
0780
0780
0780
0780
0780
ENDCHAR
STARTCHAR 0040
ENCODING 64
SWIDTH 921 0
DWIDTH 32 0
BBX 26 26 3 -4
BITMAP
00FFC000
03FFF000
0FFFFC00
1F807E00
3E001F00
3C000F00
783EE780
70FFE780
F1FFE3C0
F1F3E3C0
E3C1E3C0
E3C1E3C0
E3C0E3C0
E3C1E3C0
E3C1E3C0
F1E3E3C0
F1FFFF80
F0FFFF80
787F7F00
78000000
3C000000
1F000000
0FE18000
07FFC000
03FFC000
007F8000
ENDCHAR
STARTCHAR 0041
ENCODING 65
SWIDTH 662 0
DWIDTH 23 0
BBX 21 25 1 0
BITMAP
01FC00
01FC00
01FE00
03FE00
03DE00
03DE00
03DF00
07CF00
078F00
078F80
0F8780
0F0780
0F07C0
1F03C0
1E03C0
1E03E0
3FFFE0
3FFFE0
3FFFF0
7FFFF0
7C00F0
7800F0
F800F8
F80078
F00078
ENDCHAR
STARTCHAR 0042
ENCODING 66
SWIDTH 633 0
DWIDTH 22 0
BBX 19 25 2 0
BITMAP
FFF800
FFFE00
FFFF00
FFFF80
F80F80
F807C0
F807C0
F807C0
F807C0
F80F80
FFFF80
FFFF00
FFFF00
FFFF80
F807C0
F803E0
F803E0
F801E0
F803E0
F803E0
F807C0
FFFFC0
FFFF80
FFFF00
FFFC00
ENDCHAR
STARTCHAR 0043
ENCODING 67
SWIDTH 748 0
DWIDTH 26 0
BBX 23 25 1 0
BITMAP
00FF00
03FFC0
0FFFF0
1FFFF8
3F81FC
3E007C
7C003E
7C003E
780010
F80000
F80000
F00000
F00000
F00000
F80000
F80000
F80010
7C003E
7C003E
3E007C
3F81FC
1FFFF8
0FFFF0
03FFC0
00FF00
ENDCHAR
STARTCHAR 0044
ENCODING 68
SWIDTH 691 0
DWIDTH 24 0
BBX 21 25 2 0
BITMAP
FFF800
FFFE00
FFFF80
FFFFC0
F80FC0
F803E0
F801E0
F801F0
F800F0
F800F0
F800F8
F800F8
F800F8
F800F8
F800F8
F800F0
F800F0
F801F0
F801F0
F803E0
F80FC0
FFFFC0
FFFF80
FFFE00
FFF800
ENDCHAR
STARTCHAR 0045
ENCODING 69
SWIDTH 576 0
DWIDTH 20 0
BBX 17 25 2 0
BITMAP
FFFF80
FFFF80
FFFF80
FFFF80
F80000
F80000
F80000
F80000
F80000
F80000
FFFC00
FFFC00
FFFC00
FFFC00
F80000
F80000
F80000
F80000
F80000
F80000
F80000
FFFF80
FFFF80
FFFF80
FFFF80
ENDCHAR
STARTCHAR 0046
ENCODING 70
SWIDTH 518 0
DWIDTH 18 0
BBX 15 25 2 0
BITMAP
FFFE
FFFE
FFFE
FFFE
F800
F800
F800
F800
F800
F800
FFF8
FFF8
FFF8
FFF8
F800
F800
F800
F800
F800
F800
F800
F800
F800
F800
F800
ENDCHAR
STARTCHAR 0047
ENCODING 71
SWIDTH 720 0
DWIDTH 25 0
BBX 23 25 1 0
BITMAP
00FF00
03FFC0
0FFFF0
1FFFF0
3F81F8
3E00FC
7C007C
7C003E
F80000
F80000
F80000
F00000
F003FE
F003FE
F803FE
F8001E
78003E
7C003E
7C003C
3E007C
3F81F8
1FFFF0
0FFFE0
03FFC0
00FF00
ENDCHAR
STARTCHAR 0048
ENCODING 72
SWIDTH 720 0
DWIDTH 25 0
BBX 21 25 2 0
BITMAP
F800F8
F800F8
F800F8
F800F8
F800F8
F800F8
F800F8
F800F8
F800F8
F800F8
FFFFF8
FFFFF8
FFFFF8
FFFFF8
F800F8
F800F8
F800F8
F800F8
F800F8
F800F8
F800F8
F800F8
F800F8
F800F8
F800F8
ENDCHAR
STARTCHAR 0049
ENCODING 73
SWIDTH 288 0
DWIDTH 10 0
BBX 4 25 3 0
BITMAP
F0
F0
F0
F0
F0
F0
F0
F0
F0
F0
F0
F0
F0
F0
F0
F0
F0
F0
F0
F0
F0
F0
F0
F0
F0
ENDCHAR
STARTCHAR 004A
ENCODING 74
SWIDTH 489 0
DWIDTH 17 0
BBX 15 25 0 0
BITMAP
003E
003E
003E
003E
003E
003E
003E
003E
003E
003E
003E
003E
003E
003E
003E
003E
003E
003E
003E
F83C
F87C
7FFC
3FF8
1FF0
07C0
ENDCHAR
STARTCHAR 004B
ENCODING 75
SWIDTH 633 0
DWIDTH 22 0
BBX 20 25 2 0
BITMAP
F803E0
F807C0
F80FC0
F80F80
F81F00
F83E00
F87C00
F8F800
F9F000
FBE000
FBE000
FFC000
FF8000
FFC000
FBE000
F9F000
F9F800
F8FC00
F87E00
F83F00
F81F00
F80F80
F807C0
F803E0
F801F0
ENDCHAR
STARTCHAR 004C
ENCODING 76
SWIDTH 547 0
DWIDTH 19 0
BBX 15 25 3 0
BITMAP
F000
F000
F000
F000
F000
F000
F000
F000
F000
F000
F000
F000
F000
F000
F000
F000
F000
F000
F000
F000
F000
FFFE
FFFE
FFFE
FFFE
ENDCHAR
STARTCHAR 004D
ENCODING 77
SWIDTH 864 0
DWIDTH 30 0
BBX 25 25 2 0
BITMAP
F0000780
F8000780
F8000F80
FC000F80
FC001F80
FE001F80
FE003F80
FF003F80
FF007F80
F7807F80
F780FF80
F3C0F780
F3C1F780
F3E1E780
F1E3E780
F1F3C780
F0F7C780
F0FF8780
F07F8780
F07F0780
F03F0780
F03E0780
F01E0780
F01C0780
F00C0780
ENDCHAR
STARTCHAR 004E
ENCODING 78
SWIDTH 720 0
DWIDTH 25 0
BBX 21 25 2 0
BITMAP
F800F8
FC00F8
FC00F8
FE00F8
FF00F8
FF00F8
FF80F8
FFC0F8
FFC0F8
FBE0F8
F9F0F8
F9F0F8
F8F8F8
F87CF8
F87CF8
F83EF8
F81FF8
F81FF8
F80FF8
F807F8
F807F8
F803F8
F801F8
F801F8
F800F8
ENDCHAR
STARTCHAR 004F
ENCODING 79
SWIDTH 748 0
DWIDTH 26 0
BBX 24 25 1 0
BITMAP
00FF00
03FFC0
0FFFF0
1FFFF8
3F81FC
3E007C
7C003E
7C003E
78001E
F8001F
F8001F
F0001F
F0000F
F0001F
F8001F
F8001F
F8001E
7C003E
7C003E
3E007C
3F81FC
1FFFF8
0FFFF0
03FFC0
00FF00
ENDCHAR
STARTCHAR 0050
ENCODING 80
SWIDTH 633 0
DWIDTH 22 0
BBX 19 25 2 0
BITMAP
FFFC00
FFFF00
FFFF80
FFFFC0
F807C0
F803E0
F801E0
F801E0
F801E0
F801E0
F803E0
F807E0
FFFFC0
FFFF80
FFFF00
FFFC00
F80000
F80000
F80000
F80000
F80000
F80000
F80000
F80000
F80000
ENDCHAR
STARTCHAR 0051
ENCODING 81
SWIDTH 748 0
DWIDTH 26 0
BBX 24 25 1 0
BITMAP
00FF00
03FFC0
0FFFF0
1FFFF8
3F81FC
3E007C
7C003E
7C003E
78001E
F8001F
F8001F
F0001F
F0000F
F0001F
F8001F
F8001F
F8009E
7C03FE
7C03FE
3E01FC
3F81FC
1FFFFE
0FFFFE
03FFDE
00FF0C
ENDCHAR
STARTCHAR 0052
ENCODING 82
SWIDTH 662 0
DWIDTH 23 0
BBX 19 25 2 0
BITMAP
FFFC00
FFFF00
FFFF80
FFFFC0
F807C0
F803E0
F801E0
F801E0
F801E0
F801E0
F803E0
F807E0
FFFFC0
FFFF80
FFFF00
FFFE00
F81F00
F81F00
F80F00
F80F80
F80780
F807C0
F803C0
F803E0
F801E0
ENDCHAR
STARTCHAR 0053
ENCODING 83
SWIDTH 662 0
DWIDTH 23 0
BBX 20 25 1 0
BITMAP
01FC00
0FFF00
1FFFC0
3FFFE0
3F07E0
7C03F0
7C01F0
7C00C0
7C0000
3F0000
3FF000
1FFF00
07FFC0
00FFE0
000FF0
0001F0
0000F0
F800F0
7800F0
7C01F0
7F03F0
3FFFE0
1FFFC0
07FF80
01FE00
ENDCHAR
STARTCHAR 0054
ENCODING 84
SWIDTH 604 0
DWIDTH 21 0
BBX 21 25 0 0
BITMAP
FFFFF8
FFFFF8
FFFFF8
FFFFF8
00F800
00F800
00F800
00F800
00F800
00F800
00F800
00F800
00F800
00F800
00F800
00F800
00F800
00F800
00F800
00F800
00F800
00F800
00F800
00F800
00F800
ENDCHAR
STARTCHAR 0055
ENCODING 85
SWIDTH 720 0
DWIDTH 25 0
BBX 21 25 2 0
BITMAP
F800F8
F800F8
F800F8
F800F8
F800F8
F800F8
F800F8
F800F8
F800F8
F800F8
F800F8
F800F8
F800F8
F800F8
F800F8
F800F8
F800F0
7800F0
7C01F0
7C01F0
3F07E0
3FFFE0
1FFFC0
07FF00
01FC00
ENDCHAR
STARTCHAR 0056
ENCODING 86
SWIDTH 633 0
DWIDTH 22 0
BBX 22 25 0 0
BITMAP
F8003C
78007C
780078
7C0078
3C00F8
3C00F0
3E00F0
1E01F0
1E01E0
1E01E0
1F03E0
0F03C0
0F03C0
0F87C0
078780
078780
07CF80
03CF80
03CF00
03EF00
01FF00
01FE00
01FE00
00FE00
00FC00
ENDCHAR
STARTCHAR 0057
ENCODING 87
SWIDTH 979 0
DWIDTH 34 0
BBX 32 25 1 0
BITMAP
F003C00F
F007E00F
F007E01F
F807E01E
780FE01E
780FF01E
7C0FF03E
3C0FF03C
3C1FF03C
3C1E787C
3E1E7878
1E1E7878
1E3C7C78
1F3C3CF8
0F3C3CF0
0F7C3CF0
0F781EF0
0FF81FE0
07F81FE0
07F01FE0
07F00FC0
03F00FC0
03F00FC0
03E007C0
01E00780
ENDCHAR
STARTCHAR 0058
ENCODING 88
SWIDTH 662 0
DWIDTH 23 0
BBX 21 25 1 0
BITMAP
F800F8
7C01F0
7C03F0
3E03E0
1F07C0
1F07C0
0F8F80
07DF00
07DF00
03FE00
01FC00
01FC00
00F800
01FC00
03FC00
03FE00
07DF00
0F9F00
0F8F80
1F07C0
3E07C0
3E03E0
7C01F0
F801F0
F800F8
ENDCHAR
STARTCHAR 0059
ENCODING 89
SWIDTH 604 0
DWIDTH 21 0
BBX 21 25 0 0
BITMAP
F800F8
7C01F0
7C01F0
3E03E0
1E03E0
1F07C0
0F87C0
0F8F80
07DF00
07DF00
03FE00
01FE00
01FC00
00F800
00F800
00F800
00F800
00F800
00F800
00F800
00F800
00F800
00F800
00F800
00F800
ENDCHAR
STARTCHAR 005A
ENCODING 90
SWIDTH 662 0
DWIDTH 23 0
BBX 19 25 2 0
BITMAP
7FFFE0
7FFFE0
7FFFC0
7FFFC0
000F80
001F00
001F00
003E00
007E00
007C00
00F800
00F800
01F000
03F000
03E000
07C000
0FC000
0F8000
1F8000
1F0000
3E0000
7FFFE0
7FFFE0
FFFFE0
FFFFE0
ENDCHAR
STARTCHAR 005B
ENCODING 91
SWIDTH 432 0
DWIDTH 15 0
BBX 7 39 5 -8
BITMAP
FE
FE
FE
FE
F0
F0
F0
F0
F0
F0
F0
F0
F0
F0
F0
F0
F0
F0
F0
F0
F0
F0
F0
F0
F0
F0
F0
F0
F0
F0
F0
F0
F0
F0
F0
FE
FE
FE
FE
ENDCHAR
STARTCHAR 005C
ENCODING 92
SWIDTH 432 0
DWIDTH 15 0
BBX 11 25 2 0
BITMAP
F000
F800
7800
7800
7800
3C00
3C00
3C00
3E00
1E00
1E00
1E00
1F00
0F00
0F00
0F00
0F80
0780
0780
0780
03C0
03C0
03C0
03E0
01E0
ENDCHAR
STARTCHAR 005D
ENCODING 93
SWIDTH 432 0
DWIDTH 15 0
BBX 8 39 2 -8
BITMAP
FF
FF
FF
FF
0F
0F
0F
0F
0F
0F
0F
0F
0F
0F
0F
0F
0F
0F
0F
0F
0F
0F
0F
0F
0F
0F
0F
0F
0F
0F
0F
0F
0F
0F
0F
FF
FF
FF
FF
ENDCHAR
STARTCHAR 005E
ENCODING 94
SWIDTH 691 0
DWIDTH 24 0
BBX 16 11 4 15
BITMAP
0100
0380
07C0
0FE0
1FF0
3FF8
7E7C
FC3E
F81F
700E
2004
ENDCHAR
STARTCHAR 005F
ENCODING 95
SWIDTH 662 0
DWIDTH 23 0
BBX 23 3 0 -4
BITMAP
FFFFFE
FFFFFE
FFFFFE
ENDCHAR
STARTCHAR 0060
ENCODING 96
SWIDTH 547 0
DWIDTH 19 0
BBX 5 6 6 28
BITMAP
E0
E0
70
70
38
38
ENDCHAR
STARTCHAR 0061
ENCODING 97
SWIDTH 576 0
DWIDTH 20 0
BBX 17 19 1 0
BITMAP
03F800
0FFC00
3FFF00
3FFF00
7C0F80
380780
000780
01FF80
0FFF80
3FFF80
7FC780
7C0780
F80F80
F80F80
F81F80
7C7F80
7FFF80
3FF780
0FC000
ENDCHAR
STARTCHAR 0062
ENCODING 98
SWIDTH 604 0
DWIDTH 21 0
BBX 18 25 2 0
BITMAP
F80000
F80000
F80000
F80000
F80000
F80000
FBF000
FFFC00
FFFE00
FFFF00
FC1F80
F80F80
F807C0
F007C0
F007C0
F003C0
F007C0
F007C0
F807C0
F80F80
FC1F80
FFFF00
FFFE00
FFFC00
F3F000
ENDCHAR
STARTCHAR 0063
ENCODING 99
SWIDTH 576 0
DWIDTH 20 0
BBX 18 19 1 0
BITMAP
03F800
0FFE00
1FFF00
3FFF80
3E0F80
7C07C0
780200
780000
F80000
F80000
F80000
780000
780200
7C07C0
3E0F80
3FFF80
1FFF00
0FFE00
03F800
ENDCHAR
STARTCHAR 0064
ENCODING 100
SWIDTH 604 0
DWIDTH 21 0
BBX 18 25 1 0
BITMAP
0003C0
0003C0
0003C0
0003C0
0003C0
0003C0
03F3C0
0FFFC0
1FFFC0
3FFFC0
7E0FC0
7C07C0
7803C0
7803C0
F803C0
F803C0
F803C0
7803C0
7803C0
7C07C0
3E0FC0
3FFFC0
1FFFC0
0FFFC0
03F3C0
ENDCHAR
STARTCHAR 0065
ENCODING 101
SWIDTH 604 0
DWIDTH 21 0
BBX 18 19 1 0
BITMAP
03F800
0FFE00
1FFF00
3FFF80
3E0780
7C07C0
7803C0
7803C0
FFFFC0
FFFFC0
FFFFC0
F80000
780000
7C0380
3E0FC0
3FFF80
1FFF00
0FFE00
01F800
ENDCHAR
STARTCHAR 0066
ENCODING 102
SWIDTH 374 0
DWIDTH 13 0
BBX 12 25 1 0
BITMAP
03F0
0FF0
0FF0
1F80
1E00
1E00
FFF0
FFF0
FFF0
1E00
1E00
1E00
1E00
1E00
1E00
1E00
1E00
1E00
1E00
1E00
1E00
1E00
1E00
1E00
1E00
ENDCHAR
STARTCHAR 0067
ENCODING 103
SWIDTH 604 0
DWIDTH 21 0
BBX 18 27 1 -8
BITMAP
03F3C0
0FFFC0
1FFFC0
3FFFC0
7E0FC0
7C07C0
7803C0
7803C0
F803C0
F803C0
F803C0
7803C0
7803C0
7C07C0
3E0FC0
3FFFC0
1FFFC0
0FFFC0
03F3C0
0003C0
0003C0
0407C0
1E0F80
3FFF80
1FFF00
0FFE00
03F800
ENDCHAR
STARTCHAR 0068
ENCODING 104
SWIDTH 633 0
DWIDTH 22 0
BBX 18 25 2 0
BITMAP
F00000
F00000
F00000
F00000
F00000
F00000
F1F800
F7FE00
FFFF00
FFFF00
FE1F80
FC0F80
F80780
F807C0
F807C0
F807C0
F807C0
F807C0
F807C0
F807C0
F807C0
F807C0
F807C0
F807C0
F807C0
ENDCHAR
STARTCHAR 0069
ENCODING 105
SWIDTH 288 0
DWIDTH 10 0
BBX 4 25 3 0
BITMAP
F0
F0
F0
F0
00
00
F0
F0
F0
F0
F0
F0
F0
F0
F0
F0
F0
F0
F0
F0
F0
F0
F0
F0
F0
ENDCHAR
STARTCHAR 006A
ENCODING 106
SWIDTH 288 0
DWIDTH 10 0
BBX 8 33 0 -8
BITMAP
1F
1F
1F
1F
00
00
1F
1F
1F
1F
1F
1F
1F
1F
1F
1F
1F
1F
1F
1F
1F
1F
1F
1F
1F
1F
1F
1F
1E
FE
FE
FC
F8
ENDCHAR
STARTCHAR 006B
ENCODING 107
SWIDTH 547 0
DWIDTH 19 0
BBX 17 25 2 0
BITMAP
F80000
F80000
F80000
F80000
F80000
F80000
F81F00
F83F00
F83E00
F87C00
F8F800
F9F800
F9F000
FBE000
FFC000
FF8000
FFC000
FBE000
F9F000
F9F800
F8FC00
F87C00
F83E00
F81F00
F81F80
ENDCHAR
STARTCHAR 006C
ENCODING 108
SWIDTH 288 0
DWIDTH 10 0
BBX 4 25 3 0
BITMAP
F0
F0
F0
F0
F0
F0
F0
F0
F0
F0
F0
F0
F0
F0
F0
F0
F0
F0
F0
F0
F0
F0
F0
F0
F0
ENDCHAR
STARTCHAR 006D
ENCODING 109
SWIDTH 892 0
DWIDTH 31 0
BBX 27 19 2 0
BITMAP
F1F03E00
F7FCFF80
FFFFFFC0
FFFFFFC0
FC3F83E0
F81F03E0
F80F01E0
F80F01E0
F80F01E0
F80F01E0
F80F01E0
F80F01E0
F80F01E0
F80F01E0
F80F01E0
F80F01E0
F80F01E0
F80F01E0
F80F01E0
ENDCHAR
STARTCHAR 006E
ENCODING 110
SWIDTH 633 0
DWIDTH 22 0
BBX 18 20 2 0
BITMAP
01F800
F7FE00
FFFF00
FFFF00
FE1F80
FC0F80
F80780
F807C0
F807C0
F807C0
F807C0
F807C0
F807C0
F807C0
F807C0
F807C0
F807C0
F807C0
F807C0
F807C0
ENDCHAR
STARTCHAR 006F
ENCODING 111
SWIDTH 604 0
DWIDTH 21 0
BBX 19 19 1 0
BITMAP
03F800
0FFE00
1FFF00
3FFF80
3E0FC0
7C07C0
7803E0
7803E0
F801E0
F801E0
F801E0
7803E0
7803E0
7C07C0
3E0FC0
3FFF80
1FFF00
0FFE00
01F800
ENDCHAR
STARTCHAR 0070
ENCODING 112
SWIDTH 604 0
DWIDTH 21 0
BBX 18 27 2 -8
BITMAP
F3F000
F7FC00
FFFE00
FFFF00
FC1F80
F80F80
F807C0
F007C0
F007C0
F003C0
F007C0
F007C0
F807C0
F80F80
FC1F80
FFFF00
FFFE00
FFFC00
FBF000
F80000
F80000
F80000
F80000
F80000
F80000
F80000
F80000
ENDCHAR
STARTCHAR 0071
ENCODING 113
SWIDTH 604 0
DWIDTH 21 0
BBX 18 27 1 -8
BITMAP
03F3C0
0FFFC0
1FFFC0
3FFFC0
7E0FC0
7C07C0
7803C0
7803C0
F803C0
F803C0
F803C0
7803C0
7803C0
7C07C0
3E0FC0
3FFFC0
1FFFC0
0FFFC0
03F3C0
0003C0
0003C0
0003C0
0003C0
0003C0
0003C0
0003C0
0003C0
ENDCHAR
STARTCHAR 0072
ENCODING 114
SWIDTH 403 0
DWIDTH 14 0
BBX 11 19 2 0
BITMAP
F1E0
F7E0
FFE0
FFE0
FE00
FC00
F800
F800
F800
F800
F800
F800
F800
F800
F800
F800
F800
F800
F800
ENDCHAR
STARTCHAR 0073
ENCODING 115
SWIDTH 547 0
DWIDTH 19 0
BBX 16 19 1 0
BITMAP
07F0
1FFC
3FFE
7FFF
7C1F
780F
7C00
7F80
3FF0
0FFC
03FF
003F
000F
F80F
7C0F
7FFF
3FFE
1FFC
07F0
ENDCHAR
STARTCHAR 0074
ENCODING 116
SWIDTH 432 0
DWIDTH 15 0
BBX 13 24 0 0
BITMAP
0F00
0F00
0F00
0F00
0F00
FFF8
FFF8
FFF8
0F00
0F00
0F00
0F00
0F00
0F00
0F00
0F00
0F00
0F00
0F00
0F80
0FF8
07F8
07F8
01F8
ENDCHAR
STARTCHAR 0075
ENCODING 117
SWIDTH 633 0
DWIDTH 22 0
BBX 17 20 2 -1
BITMAP
F00780
F00780
F00780
F00780
F00780
F00780
F00780
F00780
F00780
F00780
F00780
F00780
F80780
F80F80
F80F80
7E1F80
7FFF80
3FFB80
1FF380
07C000
ENDCHAR
STARTCHAR 0076
ENCODING 118
SWIDTH 547 0
DWIDTH 19 0
BBX 17 19 1 0
BITMAP
F00780
F00780
780F80
780F00
780F00
3C1F00
3C1E00
3C1E00
1E3C00
1E3C00
1E3C00
0F7800
0F7800
07F800
07F000
07F000
03F000
03E000
03E000
ENDCHAR
STARTCHAR 0077
ENCODING 119
SWIDTH 806 0
DWIDTH 28 0
BBX 26 19 1 0
BITMAP
F01E03C0
F01E03C0
F83E0780
783F0780
783F0780
787F0F80
3C7F8F00
3C778F00
3C739F00
1EF3DE00
1EE3DE00
1EE1DE00
1FE1FC00
0FC1FC00
0FC0FC00
0FC0F800
07C0F800
07807800
07807800
ENDCHAR
STARTCHAR 0078
ENCODING 120
SWIDTH 547 0
DWIDTH 19 0
BBX 18 19 1 0
BITMAP
F80F80
780F80
7C1F00
3E3E00
1F3E00
1F7C00
0FF800
07F000
03F000
03E000
07F000
07F800
0FF800
1F7C00
1E3E00
3E1E00
7C1F00
F80F80
F807C0
ENDCHAR
STARTCHAR 0079
ENCODING 121
SWIDTH 547 0
DWIDTH 19 0
BBX 18 27 1 -8
BITMAP
F003C0
F003C0
F80780
780780
7C0F80
3C0F00
3C0F00
3E1E00
1E1E00
1E3E00
0F3C00
0F3C00
0FF800
07F800
07F800
03F000
03F000
01F000
01E000
01E000
03C000
03C000
03C000
078000
078000
0F0000
0F0000
ENDCHAR
STARTCHAR 007A
ENCODING 122
SWIDTH 547 0
DWIDTH 19 0
BBX 16 19 1 0
BITMAP
7FFF
7FFF
7FFE
7FFC
007C
00F8
00F0
01F0
03E0
03C0
0780
0F80
0F00
1E00
3E00
3FFF
7FFF
FFFF
FFFF
ENDCHAR
STARTCHAR 007B
ENCODING 123
SWIDTH 460 0
DWIDTH 16 0
BBX 9 38 5 -7
BITMAP
0F80
1F80
3F80
3F80
3C00
3C00
3C00
3C00
3C00
3C00
3C00
3C00
3C00
3C00
3C00
3C00
7C00
F800
F800
F800
F800
7C00
3C00
3C00
3C00
3C00
3C00
3C00
3C00
3C00
3C00
3C00
3C00
3C00
3F80
3F80
1F80
0F80
ENDCHAR
STARTCHAR 007C
ENCODING 124
SWIDTH 288 0
DWIDTH 10 0
BBX 4 25 3 0
BITMAP
F0
F0
F0
F0
F0
F0
F0
F0
F0
F0
F0
F0
F0
F0
F0
F0
F0
F0
F0
F0
F0
F0
F0
F0
F0
ENDCHAR
STARTCHAR 007D
ENCODING 125
SWIDTH 460 0
DWIDTH 16 0
BBX 10 38 1 -7
BITMAP
F800
FE00
FE00
FE00
1F00
0F00
0F00
0F00
0F00
0F00
0F00
0F00
0F00
0F00
0F00
0F00
0F00
0F80
07C0
07C0
0F80
0F00
0F00
0F00
0F00
0F00
0F00
0F00
0F00
0F00
0F00
0F00
0F00
1F00
FE00
FE00
FE00
F800
ENDCHAR
STARTCHAR 007E
ENCODING 126
SWIDTH 720 0
DWIDTH 25 0
BBX 17 8 4 7
BITMAP
3C0000
7F0780
FFC780
FFE780
F7FF80
F1FF80
F07F00
003E00
ENDCHAR
STARTCHAR 00A0
ENCODING 160
SWIDTH 201 0
DWIDTH 7 0
BBX 0 0 0 0
BITMAP
ENDCHAR
STARTCHAR 00A1
ENCODING 161
SWIDTH 374 0
DWIDTH 13 0
BBX 4 25 4 -6
BITMAP
F0
F0
F0
F0
00
00
F0
F0
F0
F0
F0
F0
F0
F0
F0
F0
F0
F0
F0
F0
F0
F0
F0
F0
F0
ENDCHAR
STARTCHAR 00A2
ENCODING 162
SWIDTH 576 0
DWIDTH 20 0
BBX 18 26 1 -1
BITMAP
00E000
00E000
00E000
01F000
07FE00
1FFF00
3FFF80
3E1F80
7C07C0
7C0780
780000
F80000
F80000
F80000
F80000
780000
780700
7C07C0
3E0F80
3FFF80
1FFF00
0FFE00
01F800
00E000
00E000
00E000
ENDCHAR
STARTCHAR 00A3
ENCODING 163
SWIDTH 576 0
DWIDTH 20 0
BBX 17 25 1 0
BITMAP
00F800
03FE00
07FE00
0FFF00
0F8F80
1F0780
1F0780
1F0000
1F0000
1F0000
1F0000
FFF800
FFF800
FFF800
FFF800
1F0000
1F0000
1F0000
1F0000
1F0000
3F0000
FFFF00
FFFF00
FFFF00
FFFF00
ENDCHAR
STARTCHAR 00A4
ENCODING 164
SWIDTH 662 0
DWIDTH 23 0
BBX 21 21 1 2
BITMAP
200020
703070
FBFEF8
7FFFF8
3FFFF0
1F07E0
3E03E0
3C01E0
3800F0
3800F0
3800F0
3800F0
3800F0
3C01E0
3E03E0
1F07C0
3FFFE0
7FFFF0
FBFEF8
702070
200020
ENDCHAR
STARTCHAR 00A5
ENCODING 165
SWIDTH 604 0
DWIDTH 21 0
BBX 21 25 0 0
BITMAP
F800F8
7C01F0
7C01F0
3E03E0
1E03E0
1F07C0
0F87C0
0F8F80
07DF00
07DF00
03FE00
01FE00
01FC00
1FFFC0
1FFFC0
1FFFC0
00F800
00F800
1FFFC0
1FFFC0
1FFFC0
00F800
00F800
00F800
00F800
ENDCHAR
STARTCHAR 00A6
ENCODING 166
SWIDTH 288 0
DWIDTH 10 0
BBX 4 32 3 -7
BITMAP
F0
F0
F0
F0
F0
F0
F0
F0
F0
F0
F0
F0
F0
F0
00
00
00
00
F0
F0
F0
F0
F0
F0
F0
F0
F0
F0
F0
F0
F0
F0
ENDCHAR
STARTCHAR 00A7
ENCODING 167
SWIDTH 547 0
DWIDTH 19 0
BBX 15 28 2 -5
BITMAP
0FC0
3FF0
7FF8
FFFC
F87C
F03C
F800
FE00
7FC0
3FF8
3FFC
7DFE
F03E
F01E
F01E
FC1E
FFFE
7FFC
1FFC
03FE
003E
101E
F81E
F83E
7FFE
7FFC
3FF8
0FE0
ENDCHAR
STARTCHAR 00A8
ENCODING 168
SWIDTH 547 0
DWIDTH 19 0
BBX 11 4 4 28
BITMAP
F1E0
F1E0
F1E0
F1E0
ENDCHAR
STARTCHAR 00A9
ENCODING 169
SWIDTH 892 0
DWIDTH 31 0
BBX 29 29 1 -2
BITMAP
001FC000
00FFF800
03FFFC00
07FFFF00
0FE07F80
1F800FC0
3F0007C0
3E0F83E0
7C3FE1E0
787FF0F0
7878F8F0
F0F078F0
F0E00078
F0E00078
F0E00078
F0E00078
F0E00078
F0F078F0
7878F8F0
787FF0F0
7C3FE1E0
3E0FC3E0
3F0007C0
1F800FC0
0FE03F80
07FFFF00
03FFFC00
00FFF800
003FC000
ENDCHAR
STARTCHAR 00AA
ENCODING 170
SWIDTH 316 0
DWIDTH 11 0
BBX 9 10 1 9
BITMAP
3E00
7F00
6380
0780
7F80
7380
E380
E780
7F80
1980
ENDCHAR
STARTCHAR 00AB
ENCODING 171
SWIDTH 576 0
DWIDTH 20 0
BBX 15 15 3 2
BITMAP
0604
070E
0F1E
1E3C
3C78
7870
70E0
F1E0
F1E0
78F0
3C78
1C3C
0E1C
0F1E
060C
ENDCHAR
STARTCHAR 00AC
ENCODING 172
SWIDTH 604 0
DWIDTH 21 0
BBX 17 7 2 7
BITMAP
FFFF80
FFFF80
FFFF80
000780
000780
000780
000780
ENDCHAR
STARTCHAR 00AD
ENCODING 173
SWIDTH 432 0
DWIDTH 15 0
BBX 11 3 2 9
BITMAP
FFE0
FFE0
FFE0
ENDCHAR
STARTCHAR 00AE
ENCODING 174
SWIDTH 662 0
DWIDTH 23 0
BBX 18 18 2 9
BITMAP
03F000
0FFC00
1FFF00
3C0F80
780380
73F1C0
7319C0
E319C0
E330C0
E3F1C0
6331C0
7331C0
731B80
380780
3E0F00
1FFE00
07FC00
01F000
ENDCHAR
STARTCHAR 00AF
ENCODING 175
SWIDTH 518 0
DWIDTH 18 0
BBX 9 3 4 29
BITMAP
FF80
FF80
FF80
ENDCHAR
STARTCHAR 00B0
ENCODING 176
SWIDTH 460 0
DWIDTH 16 0
BBX 13 13 1 12
BITMAP
0F80
3FC0
7FE0
7FF0
F0F0
F070
F078
F070
F8F0
7FF0
3FE0
1FC0
0200
ENDCHAR
STARTCHAR 00B1
ENCODING 177
SWIDTH 604 0
DWIDTH 21 0
BBX 17 17 2 2
BITMAP
01C000
01C000
01C000
01C000
FFFF80
FFFF80
FFFF80
01C000
01C000
01C000
01C000
000000
000000
000000
FFFF80
FFFF80
FFFF80
ENDCHAR
STARTCHAR 00B2
ENCODING 178
SWIDTH 403 0
DWIDTH 14 0
BBX 11 16 2 9
BITMAP
1F00
7F80
FFC0
E1C0
E0E0
00E0
01C0
01C0
0780
0F00
1E00
3C00
7800
FFE0
FFE0
FFE0
ENDCHAR
STARTCHAR 00B3
ENCODING 179
SWIDTH 403 0
DWIDTH 14 0
BBX 11 16 1 9
BITMAP
7FE0
7FE0
7FE0
03C0
0780
0F00
1F80
0FC0
01C0
00E0
00E0
00E0
F0E0
7FC0
3F80
1F00
ENDCHAR
STARTCHAR 00B4
ENCODING 180
SWIDTH 547 0
DWIDTH 19 0
BBX 5 6 8 28
BITMAP
38
70
70
F0
E0
E0
ENDCHAR
STARTCHAR 00B5
ENCODING 181
SWIDTH 633 0
DWIDTH 22 0
BBX 18 27 2 -8
BITMAP
F807C0
F807C0
F807C0
F807C0
F807C0
F807C0
F807C0
F807C0
F807C0
F807C0
F807C0
F807C0
F807C0
F807C0
FC0FC0
FE1FC0
FFFFC0
FFFFC0
FFFBC0
F7E000
F00000
F00000
F00000
F00000
F00000
F00000
F00000
ENDCHAR
STARTCHAR 00B6
ENCODING 182
SWIDTH 720 0
DWIDTH 25 0
BBX 21 30 2 -5
BITMAP
0FFC78
1FFC78
7FFC78
7FFC78
FFFC78
FFFC78
FFFC78
FFFC78
FFFC78
FFFC78
FFFC78
FFFC78
7FFC78
7FFC78
3FFC78
0FFC78
003C78
003C78
003C78
003C78
003C78
003C78
003C78
003C78
003C78
003C78
003C78
003C78
003C78
003C78
ENDCHAR
STARTCHAR 00B7
ENCODING 183
SWIDTH 259 0
DWIDTH 9 0
BBX 5 5 2 8
BITMAP
70
F8
F8
F8
70
ENDCHAR
STARTCHAR 00B8
ENCODING 184
SWIDTH 403 0
DWIDTH 14 0
BBX 6 9 4 -8
BITMAP
38
30
78
7C
1C
1C
7C
FC
F0
ENDCHAR
STARTCHAR 00B9
ENCODING 185
SWIDTH 345 0
DWIDTH 12 0
BBX 6 16 2 9
BITMAP
3C
FC
FC
DC
1C
1C
1C
1C
1C
1C
1C
1C
1C
1C
1C
1C
ENDCHAR
STARTCHAR 00BA
ENCODING 186
SWIDTH 345 0
DWIDTH 12 0
BBX 10 10 1 9
BITMAP
1E00
3F80
7380
61C0
E1C0
E1C0
61C0
7380
3F80
1E00
ENDCHAR
STARTCHAR 00BB
ENCODING 187
SWIDTH 576 0
DWIDTH 20 0
BBX 15 15 2 2
BITMAP
2040
F0E0
70E0
7870
3C78
1E3C
0F1E
070E
0F1E
1E1C
1C38
3878
78F0
F1E0
60C0
ENDCHAR
STARTCHAR 00BC
ENCODING 188
SWIDTH 1036 0
DWIDTH 36 0
BBX 30 25 2 0
BITMAP
3C000600
FC000700
FC000F00
DC001E00
9C003C00
1C003800
1C007800
1C00F000
1C01E000
1C01C000
1C03C1C0
1C0781C0
1C070380
1C0F0380
1C1E0700
1C3C0700
00380E30
00780E30
00F01E30
01E01C30
01C01FFC
03C01FFC
07801FFC
07000030
02000030
ENDCHAR
STARTCHAR 00BD
ENCODING 189
SWIDTH 1008 0
DWIDTH 35 0
BBX 31 25 2 0
BITMAP
3C000600
FC000700
FC000F00
DC001E00
1C003C00
1C003800
1C007800
1C00F000
1C01E000
1C01C0F8
1C03C3FC
1C0787FE
1C07070E
1C0F0706
1C1E0006
1C3C000E
0038001E
0078003C
00F00078
01E000F0
01C001E0
03C003C0
078007FE
070007FE
020007FE
ENDCHAR
STARTCHAR 00BE
ENCODING 190
SWIDTH 1036 0
DWIDTH 36 0
BBX 33 25 1 0
BITMAP
7FE000C000
7FE000E000
7FE001E000
03C003C000
0780038000
0F00070000
1F800F0000
0FC01E0000
01C01C0000
00E03C3C00
00E0783800
00E0F03800
F0E0E07000
7FC1E07000
3F83C0E000
1F0780E000
000701CE00
000F01CE00
001E038E00
003C038E00
003803FF80
007803FF80
00F003FF80
00E0000E00
0060000E00
ENDCHAR
STARTCHAR 00BF
ENCODING 191
SWIDTH 547 0
DWIDTH 19 0
BBX 15 26 2 -7
BITMAP
03C0
03C0
03C0
03C0
03C0
0000
0000
03C0
03C0
07C0
07C0
0F80
1F80
3F00
7C00
7800
F800
F000
F000
F01E
F81E
FC3E
7FFC
7FFC
3FF0
0FC0
ENDCHAR
STARTCHAR 00C0
ENCODING 192
SWIDTH 662 0
DWIDTH 23 0
BBX 21 34 1 0
BITMAP
038000
01C000
01C000
01E000
00E000
00E000
000000
000000
000000
01FC00
01FC00
01FE00
03FE00
03FE00
03DE00
03DF00
07CF00
078F00
078F80
0F8780
0F0780
0F07C0
1F03C0
1E03C0
1E03E0
3FFFE0
3FFFE0
3FFFF0
7FFFF0
7C00F0
7800F0
F800F8
F80078
F00078
ENDCHAR
STARTCHAR 00C1
ENCODING 193
SWIDTH 662 0
DWIDTH 23 0
BBX 21 34 1 0
BITMAP
000E00
001E00
001C00
001C00
003800
003800
000000
000000
000000
01FC00
01FC00
01FE00
03FE00
03DE00
03DE00
03DF00
07CF00
078F00
078F80
0F8780
0F0780
0F07C0
1F03C0
1E03C0
1E03E0
3FFFE0
3FFFE0
3FFFF0
7FFFF0
7C00F0
7800F0
F800F8
F80078
F00078
ENDCHAR
STARTCHAR 00C2
ENCODING 194
SWIDTH 662 0
DWIDTH 23 0
BBX 21 33 1 0
BITMAP
00F800
00FC00
01FE00
03CE00
078F00
000080
000000
000000
01FC00
01FC00
01FE00
03FE00
03DE00
03DE00
03DF00
07CF00
078F00
078F80
0F8780
0F0780
0F07C0
1F03C0
1E03C0
1E03E0
3FFFE0
3FFFE0
3FFFF0
7FFFF0
7C00F0
7800F0
F800F8
F80078
F00078
ENDCHAR
STARTCHAR 00C3
ENCODING 195
SWIDTH 662 0
DWIDTH 23 0
BBX 21 34 1 0
BITMAP
03C380
07E380
07FF80
063F00
060E00
000000
000000
000000
000000
01FC00
01FC00
01FE00
03FE00
03DE00
03DE00
03DF00
07CF00
078F00
078F80
0F8780
0F0780
0F07C0
1F03C0
1E03C0
1E03E0
3FFFE0
3FFFE0
3FFFF0
7FFFF0
7C00F0
7800F0
F800F8
F80078
F00078
ENDCHAR
STARTCHAR 00C4
ENCODING 196
SWIDTH 662 0
DWIDTH 23 0
BBX 21 32 1 0
BITMAP
078F00
078F00
078F00
078F00
000000
000000
000000
01FC00
01FC00
01FE00
03FE00
03DE00
03DE00
03DF00
07CF00
078F00
078F80
0F8780
0F0780
0F07C0
1F03C0
1E03C0
1E03E0
3FFFE0
3FFFE0
3FFFF0
7FFFF0
7C00F0
7800F0
F800F8
F80078
F00078
ENDCHAR
STARTCHAR 00C5
ENCODING 197
SWIDTH 662 0
DWIDTH 23 0
BBX 21 36 1 0
BITMAP
007800
01FC00
01FE00
038E00
038600
038E00
01FE00
01FC00
007800
000000
000000
01FC00
01FC00
01FE00
03FE00
03DE00
03DE00
03DF00
07CF00
078F00
078F80
0F8780
0F0780
0F07C0
1F03C0
1E03C0
1E03E0
3FFFE0
3FFFE0
3FFFF0
7FFFF0
7C00F0
7800F0
F800F8
F80078
F00078
ENDCHAR
STARTCHAR 00C6
ENCODING 198
SWIDTH 950 0
DWIDTH 33 0
BBX 30 25 1 0
BITMAP
01FFFFFC
01FFFFFC
01FFFFFC
03FFFFFC
03C3C000
03C3C000
03C3C000
07C3C000
0783C000
0783C000
0F83FFF0
0F03FFF0
0F03FFF0
1F03FFF0
1E03C000
1E03C000
3FFFC000
3FFFC000
3FFFC000
7FFFC000
7C03C000
7803FFFC
F803FFFC
F803FFFC
F003FFFC
ENDCHAR
STARTCHAR 00C7
ENCODING 199
SWIDTH 748 0
DWIDTH 26 0
BBX 23 33 1 -8
BITMAP
00FF00
03FFC0
0FFFF0
1FFFF8
3F81FC
3E007C
7C003E
7C003E
780018
F80000
F80000
F00000
F00000
F00000
F80000
F80000
F80010
78001E
7C003E
3E007C
3F00FC
1FFFF8
0FFFF0
03FFC0
00FF00
001800
003C00
003E00
000E00
000E00
003E00
003C00
003800
ENDCHAR
STARTCHAR 00C8
ENCODING 200
SWIDTH 576 0
DWIDTH 20 0
BBX 17 34 2 0
BITMAP
070000
070000
038000
038000
03C000
01C000
000000
000000
000000
FFFF80
FFFF80
FFFF80
FFFF80
F80000
F80000
F80000
F80000
F80000
F80000
FFFC00
FFFC00
FFFC00
FFFC00
F80000
F80000
F80000
F80000
F80000
F80000
F80000
FFFF80
FFFF80
FFFF80
FFFF80
ENDCHAR
STARTCHAR 00C9
ENCODING 201
SWIDTH 576 0
DWIDTH 20 0
BBX 17 34 2 0
BITMAP
003800
007800
007000
007000
00E000
00E000
000000
000000
000000
FFFF80
FFFF80
FFFF80
FFFF80
F80000
F80000
F80000
F80000
F80000
F80000
FFFC00
FFFC00
FFFC00
FFFC00
F80000
F80000
F80000
F80000
F80000
F80000
F80000
FFFF80
FFFF80
FFFF80
FFFF80
ENDCHAR
STARTCHAR 00CA
ENCODING 202
SWIDTH 576 0
DWIDTH 20 0
BBX 17 33 2 0
BITMAP
03C000
07E000
0FF000
1E7800
1E3C00
200000
000000
000000
FFFF80
FFFF80
FFFF80
FFFF80
F80000
F80000
F80000
F80000
F80000
F80000
FFFC00
FFFC00
FFFC00
FFFC00
F80000
F80000
F80000
F80000
F80000
F80000
F80000
FFFF80
FFFF80
FFFF80
FFFF80
ENDCHAR
STARTCHAR 00CB
ENCODING 203
SWIDTH 576 0
DWIDTH 20 0
BBX 17 32 2 0
BITMAP
1E3C00
1E3C00
1E3C00
1E3C00
000000
000000
000000
FFFF80
FFFF80
FFFF80
FFFF80
F80000
F80000
F80000
F80000
F80000
F80000
FFFC00
FFFC00
FFFC00
FFFC00
F80000
F80000
F80000
F80000
F80000
F80000
F80000
FFFF80
FFFF80
FFFF80
FFFF80
ENDCHAR
STARTCHAR 00CC
ENCODING 204
SWIDTH 288 0
DWIDTH 10 0
BBX 6 34 1 0
BITMAP
E0
E0
70
70
78
38
00
00
00
3C
3C
3C
3C
3C
3C
3C
3C
3C
3C
3C
3C
3C
3C
3C
3C
3C
3C
3C
3C
3C
3C
3C
3C
3C
ENDCHAR
STARTCHAR 00CD
ENCODING 205
SWIDTH 288 0
DWIDTH 10 0
BBX 6 34 3 0
BITMAP
1C
3C
38
38
70
70
00
00
00
F0
F0
F0
F0
F0
F0
F0
F0
F0
F0
F0
F0
F0
F0
F0
F0
F0
F0
F0
F0
F0
F0
F0
F0
F0
ENDCHAR
STARTCHAR 00CE
ENCODING 206
SWIDTH 288 0
DWIDTH 10 0
BBX 12 33 -1 0
BITMAP
0F00
1F80
3FC0
79E0
F0E0
0010
0000
0000
0F00
0F00
0F00
0F00
0F00
0F00
0F00
0F00
0F00
0F00
0F00
0F00
0F00
0F00
0F00
0F00
0F00
0F00
0F00
0F00
0F00
0F00
0F00
0F00
0F00
ENDCHAR
STARTCHAR 00CF
ENCODING 207
SWIDTH 288 0
DWIDTH 10 0
BBX 11 32 -1 0
BITMAP
F0E0
F0E0
F0E0
F0E0
0000
0000
0000
0F00
0F00
0F00
0F00
0F00
0F00
0F00
0F00
0F00
0F00
0F00
0F00
0F00
0F00
0F00
0F00
0F00
0F00
0F00
0F00
0F00
0F00
0F00
0F00
0F00
ENDCHAR
STARTCHAR 00D0
ENCODING 208
SWIDTH 691 0
DWIDTH 24 0
BBX 23 25 0 0
BITMAP
3FFE00
3FFF80
3FFFE0
3FFFF0
3E03F8
3E00F8
3E007C
3E007C
3E003C
3E003C
3E003E
FFF03E
FFF03E
FFF03E
3E003E
3E003C
3E003C
3E007C
3E007C
3E00F8
3E03F8
3FFFF0
3FFFE0
3FFF80
3FFE00
ENDCHAR
STARTCHAR 00D1
ENCODING 209
SWIDTH 720 0
DWIDTH 25 0
BBX 21 33 2 0
BITMAP
03C380
07F380
07FF80
073F80
070F00
000000
000000
000000
F800F8
FC00F8
FC00F8
FE00F8
FF00F8
FF00F8
FF80F8
FFC0F8
FFC0F8
FBE0F8
F9F0F8
F9F0F8
F8F8F8
F87CF8
F87CF8
F83EF8
F81FF8
F81FF8
F80FF8
F807F8
F807F8
F803F8
F801F8
F801F8
F800F8
ENDCHAR
STARTCHAR 00D2
ENCODING 210
SWIDTH 748 0
DWIDTH 26 0
BBX 24 34 1 0
BITMAP
01E000
00E000
00E000
007000
007000
007800
003800
000000
000000
00FF00
03FFC0
0FFFF0
1FFFF8
3F81FC
3E007C
7C003E
7C003E
78001E
F8001F
F8001F
F0001F
F0000F
F0001F
F8001F
F8001F
F8001E
7C003E
7C003E
3E007C
3F81FC
1FFFF8
0FFFF0
03FFC0
00FF00
ENDCHAR
STARTCHAR 00D3
ENCODING 211
SWIDTH 748 0
DWIDTH 26 0
BBX 24 34 1 0
BITMAP
000700
000700
000F00
000E00
000E00
001C00
001C00
000000
000000
00FF00
03FFC0
0FFFF0
1FFFF8
3F81FC
3E007C
7C003E
7C003E
78001E
F8001F
F8001F
F0001F
F0000F
F0001F
F8001F
F8001F
F8001E
7C003E
7C003E
3E007C
3F81FC
1FFFF8
0FFFF0
03FFC0
00FF00
ENDCHAR
STARTCHAR 00D4
ENCODING 212
SWIDTH 748 0
DWIDTH 26 0
BBX 24 32 1 0
BITMAP
007E00
00FE00
00EF00
01E780
03C3C0
000000
000000
00FF00
03FFC0
0FFFF0
1FFFF8
3F81FC
3E007C
7C003E
7C003E
78001E
F8001F
F8001F
F0001F
F0000F
F0001F
F8001F
F8001F
F8001E
7C003E
7C003E
3E007C
3F81FC
1FFFF8
0FFFF0
03FFC0
00FF00
ENDCHAR
STARTCHAR 00D5
ENCODING 213
SWIDTH 748 0
DWIDTH 26 0
BBX 24 33 1 0
BITMAP
01E000
01F8C0
03FDC0
03BFC0
038FC0
000780
000000
000000
00FF00
03FFC0
0FFFF0
1FFFF8
3F81FC
3E007C
7C003E
7C003E
78001E
F8001F
F8001F
F0001F
F0000F
F0001F
F8001F
F8001F
F8001E
7C003E
7C003E
3E007C
3F81FC
1FFFF8
0FFFF0
03FFC0
00FF00
ENDCHAR
STARTCHAR 00D6
ENCODING 214
SWIDTH 748 0
DWIDTH 26 0
BBX 24 31 1 0
BITMAP
01C3C0
01C3C0
01C3C0
01C3C0
000000
000000
00FF00
03FFC0
0FFFF0
1FFFF8
3F81FC
3E007C
7C003E
7C003E
78001E
F8001F
F8001F
F0001F
F0000F
F0001F
F8001F
F8001F
F8001E
7C003E
7C003E
3E007C
3F81FC
1FFFF8
0FFFF0
03FFC0
00FF00
ENDCHAR
STARTCHAR 00D7
ENCODING 215
SWIDTH 518 0
DWIDTH 18 0
BBX 13 13 2 6
BITMAP
2010
7038
F878
7CF0
3FE0
1FC0
0F80
0FC0
1FE0
3DF0
78F8
F078
6030
ENDCHAR
STARTCHAR 00D8
ENCODING 216
SWIDTH 748 0
DWIDTH 26 0
BBX 24 25 1 0
BITMAP
00FF04
03FFCE
0FFFFF
1FFFFE
3F81FC
3E00FC
7C01FE
7C03FE
7807FF
F807DF
F80F9F
F01F1F
F03E0F
F07C1F
F8F81F
F9F01F
7BE01E
7FC03E
7F803E
3F007C
3F81FC
7FFFF8
7FFFF0
3BFFC0
10FF00
ENDCHAR
STARTCHAR 00D9
ENCODING 217
SWIDTH 720 0
DWIDTH 25 0
BBX 21 34 2 0
BITMAP
01C000
01C000
00E000
00E000
00F000
007000
000000
000000
000000
F800F8
F800F8
F800F8
F800F8
F800F8
F800F8
F800F8
F800F8
F800F8
F800F8
F800F8
F800F8
F800F8
F800F8
F800F8
F800F8
F800F0
7800F0
7C01F0
7C01F0
3F07E0
3FFFE0
1FFFC0
07FF00
01FC00
ENDCHAR
STARTCHAR 00DA
ENCODING 218
SWIDTH 720 0
DWIDTH 25 0
BBX 21 34 2 0
BITMAP
001C00
001C00
003C00
003800
003800
007000
000000
000000
000000
F800F8
F800F8
F800F8
F800F8
F800F8
F800F8
F800F8
F800F8
F800F8
F800F8
F800F8
F800F8
F800F8
F800F8
F800F8
F800F8
F800F0
7800F0
7C01F0
7C01F0
3F07E0
3FFFE0
1FFFC0
07FF00
01FC00
ENDCHAR
STARTCHAR 00DB
ENCODING 219
SWIDTH 720 0
DWIDTH 25 0
BBX 21 33 2 0
BITMAP
00F800
01FC00
01DC00
03DE00
078F00
080000
000000
000000
F800F8
F800F8
F800F8
F800F8
F800F8
F800F8
F800F8
F800F8
F800F8
F800F8
F800F8
F800F8
F800F8
F800F8
F800F8
F800F8
F800F0
7800F0
7C01F0
7C01F0
3F07E0
3FFFE0
1FFFC0
07FF00
01FC00
ENDCHAR
STARTCHAR 00DC
ENCODING 220
SWIDTH 720 0
DWIDTH 25 0
BBX 21 32 2 0
BITMAP
078F00
078F00
078F00
078F00
000000
000000
000000
F800F8
F800F8
F800F8
F800F8
F800F8
F800F8
F800F8
F800F8
F800F8
F800F8
F800F8
F800F8
F800F8
F800F8
F800F8
F800F8
F800F0
7800F0
7C01F0
7C01F0
3F07E0
3FFFE0
1FFFC0
07FF00
01FC00
ENDCHAR
STARTCHAR 00DD
ENCODING 221
SWIDTH 604 0
DWIDTH 21 0
BBX 21 34 0 0
BITMAP
001E00
001C00
001C00
003800
003800
007000
000000
000000
000000
F800F8
7C01F0
7C01F0
3E03E0
1E03E0
1F07C0
0F87C0
0F8F80
07DF00
07DF00
03FE00
01FE00
01FC00
00F800
00F800
00F800
00F800
00F800
00F800
00F800
00F800
00F800
00F800
00F800
00F800
ENDCHAR
STARTCHAR 00DE
ENCODING 222
SWIDTH 633 0
DWIDTH 22 0
BBX 19 25 2 0
BITMAP
F80000
F80000
F80000
F80000
FFF800
FFFE00
FFFF00
FFFF80
F80FC0
F807C0
F803E0
F803E0
F801E0
F803E0
F803E0
F807C0
F80FC0
FFFF80
FFFF00
FFFE00
FFF800
F80000
F80000
F80000
F80000
ENDCHAR
STARTCHAR 00DF
ENCODING 223
SWIDTH 633 0
DWIDTH 22 0
BBX 18 25 2 0
BITMAP
07E000
1FF800
3FFC00
7FFE00
7C3E00
F81F00
F80F00
F80F00
F81F00
F83E00
F8FE00
F8FC00
F8FF00
F8FF80
F80F80
F807C0
F803C0
F803C0
F803C0
F807C0
F80F80
F9FF80
F9FF00
F9FE00
F9F800
ENDCHAR
STARTCHAR 00E0
ENCODING 224
SWIDTH 576 0
DWIDTH 20 0
BBX 17 27 1 0
BITMAP
078000
038000
038000
01C000
01C000
01E000
000000
000000
03F800
0FFC00
3FFF00
3FFF00
7C0F80
380780
000780
01FF80
0FFF80
3FFF80
7FC780
7C0780
F80F80
F80F80
F81F80
7C7F80
7FFF80
3FF780
0FC000
ENDCHAR
STARTCHAR 00E1
ENCODING 225
SWIDTH 576 0
DWIDTH 20 0
BBX 17 27 1 0
BITMAP
003800
003800
007000
007000
00F000
00E000
000000
000000
03F800
0FFC00
3FFF00
3FFF00
7C0F80
380780
000780
01FF80
0FFF80
3FFF80
7FC780
7C0780
F80F80
F80F80
F81F80
7C7F80
7FFF80
3FF780
0FC000
ENDCHAR
STARTCHAR 00E2
ENCODING 226
SWIDTH 576 0
DWIDTH 20 0
BBX 17 26 1 0
BITMAP
01F000
03F800
07BC00
0F1C00
1E1E00
000000
000000
03F800
0FFC00
3FFF00
3FFF00
7C0F80
380780
000780
01FF80
0FFF80
3FFF80
7FC780
7C0780
F80F80
F80F80
F81F80
7C7F80
7FFF80
3FF780
0FC780
ENDCHAR
STARTCHAR 00E3
ENCODING 227
SWIDTH 576 0
DWIDTH 20 0
BBX 17 27 1 0
BITMAP
070000
0FC700
0FE700
1CFF00
0C7E00
001C00
000000
000000
03F800
0FFC00
3FFF00
3FFF00
7C0F80
380780
000780
01FF80
0FFF80
3FFF80
7FC780
7C0780
F80F80
F80F80
F81F80
7C7F80
7FFF80
3FF780
0FC000
ENDCHAR
STARTCHAR 00E4
ENCODING 228
SWIDTH 576 0
DWIDTH 20 0
BBX 17 25 1 0
BITMAP
0F1E00
0F1E00
0F1E00
0F1E00
000000
000000
03F800
0FFC00
3FFF00
3FFF00
7C0F80
380780
000780
01FF80
0FFF80
3FFF80
7FC780
7C0780
F80F80
F80F80
F81F80
7C7F80
7FFF80
3FF780
0FC780
ENDCHAR
STARTCHAR 00E5
ENCODING 229
SWIDTH 576 0
DWIDTH 20 0
BBX 17 29 1 1
BITMAP
03F000
07F800
073800
061C00
061C00
073800
07F800
03F000
00C000
000000
03F800
0FFC00
3FFF00
3FFF00
7C0F80
380780
000780
01FF80
0FFF80
3FFF80
7FC780
7C0780
F80F80
F80F80
F81F80
7C7F80
7FFF80
3FF780
0FC000
ENDCHAR
STARTCHAR 00E6
ENCODING 230
SWIDTH 950 0
DWIDTH 33 0
BBX 30 19 1 0
BITMAP
03F01F80
0FFC7FE0
1FFEFFF0
3FFFFFF0
7C1FE078
380FC078
0007C03C
0007803C
03FFFFFC
1FFFFFFC
3FFFFFFC
7E078000
7807C000
F00FC070
F81FE0FC
7C7DFFF8
7FF8FFF0
3FF07FE0
0FC01F80
ENDCHAR
STARTCHAR 00E7
ENCODING 231
SWIDTH 576 0
DWIDTH 20 0
BBX 18 27 1 -8
BITMAP
03F800
0FFE00
1FFF00
3FFF80
3E0F80
7C07C0
780300
780000
F80000
F80000
F80000
F80000
780000
7C07C0
7E0F80
3FFF80
1FFF00
0FFE00
03F800
00E000
00E000
01F000
007800
003800
01F000
01F000
01E000
ENDCHAR
STARTCHAR 00E8
ENCODING 232
SWIDTH 604 0
DWIDTH 21 0
BBX 18 28 1 0
BITMAP
038000
038000
03C000
01C000
01C000
00E000
00E000
000000
000000
03F800
0FFE00
1FFF00
3FFF80
3E0780
7C07C0
7803C0
7803C0
FFFFC0
FFFFC0
FFFFC0
F80000
780000
7C0380
3E0FC0
3FFF80
1FFF00
0FFE00
01F800
ENDCHAR
STARTCHAR 00E9
ENCODING 233
SWIDTH 604 0
DWIDTH 21 0
BBX 18 28 1 0
BITMAP
001C00
001C00
003800
003800
007800
007000
007000
000000
000000
03F800
0FFE00
1FFF00
3FFF80
3E0780
7C07C0
7803C0
7803C0
FFFFC0
FFFFC0
FFFFC0
F80000
780000
7C0380
3E0FC0
3FFF80
1FFF00
0FFE00
01F800
ENDCHAR
STARTCHAR 00EA
ENCODING 234
SWIDTH 604 0
DWIDTH 21 0
BBX 18 26 1 0
BITMAP
01F000
03F800
07BC00
0F1E00
0E0F00
000000
000000
03F800
0FFE00
1FFF00
3FFF80
3E0780
7C07C0
7803C0
7803C0
FFFFC0
FFFFC0
FFFFC0
F80000
780000
7C0380
3E0FC0
3FFF80
1FFF00
0FFE00
01F800
ENDCHAR
STARTCHAR 00EB
ENCODING 235
SWIDTH 604 0
DWIDTH 21 0
BBX 18 25 1 0
BITMAP
0F1E00
0F1E00
0F1E00
0F1E00
000000
000000
03F800
0FFE00
1FFF00
3FFF80
3E0780
7C07C0
7803C0
7803C0
FFFFC0
FFFFC0
FFFFC0
F80000
780000
7C0380
3E0FC0
3FFF80
1FFF00
0FFE00
01F800
ENDCHAR
STARTCHAR 00EC
ENCODING 236
SWIDTH 288 0
DWIDTH 10 0
BBX 6 28 1 0
BITMAP
E0
E0
70
70
78
38
00
00
00
3C
3C
3C
3C
3C
3C
3C
3C
3C
3C
3C
3C
3C
3C
3C
3C
3C
3C
3C
ENDCHAR
STARTCHAR 00ED
ENCODING 237
SWIDTH 288 0
DWIDTH 10 0
BBX 6 28 3 0
BITMAP
1C
3C
38
38
70
70
00
00
00
F0
F0
F0
F0
F0
F0
F0
F0
F0
F0
F0
F0
F0
F0
F0
F0
F0
F0
F0
ENDCHAR
STARTCHAR 00EE
ENCODING 238
SWIDTH 288 0
DWIDTH 10 0
BBX 12 27 -1 0
BITMAP
0F00
1F80
3FC0
79E0
F0F0
0000
0000
0000
0F00
0F00
0F00
0F00
0F00
0F00
0F00
0F00
0F00
0F00
0F00
0F00
0F00
0F00
0F00
0F00
0F00
0F00
0F00
ENDCHAR
STARTCHAR 00EF
ENCODING 239
SWIDTH 288 0
DWIDTH 10 0
BBX 11 25 -1 0
BITMAP
F0E0
F0E0
F0E0
F0E0
0000
0000
0F00
0F00
0F00
0F00
0F00
0F00
0F00
0F00
0F00
0F00
0F00
0F00
0F00
0F00
0F00
0F00
0F00
0F00
0F00
ENDCHAR
STARTCHAR 00F0
ENCODING 240
SWIDTH 604 0
DWIDTH 21 0
BBX 18 27 1 0
BITMAP
000400
01CE00
03FE00
03FC00
00FE00
00FF00
00FF00
006780
000380
03F380
0FFFC0
1FFFC0
3FFFC0
7E0FC0
7807C0
7803C0
F803C0
F803C0
F803C0
F803C0
7803C0
7807C0
7C0F80
3FFF80
1FFF00
0FFE00
03F800
ENDCHAR
STARTCHAR 00F1
ENCODING 241
SWIDTH 633 0
DWIDTH 22 0
BBX 18 27 2 0
BITMAP
0F0E00
1FCE00
1FFE00
1CFE00
1C3C00
000000
000000
000000
01F800
F7FE00
FFFF00
FFFF00
FE1F80
FC0F80
F80780
F807C0
F807C0
F807C0
F807C0
F807C0
F807C0
F807C0
F807C0
F807C0
F807C0
F807C0
F807C0
ENDCHAR
STARTCHAR 00F2
ENCODING 242
SWIDTH 604 0
DWIDTH 21 0
BBX 19 28 1 0
BITMAP
070000
038000
038000
01C000
01C000
01E000
00E000
000000
000000
03F800
0FFE00
1FFF00
3FFF80
3E0FC0
7C07C0
7803E0
7803E0
F801E0
F801E0
F801E0
7803E0
7803E0
7C07C0
3E0FC0
3FFF80
1FFF00
0FFE00
01F800
ENDCHAR
STARTCHAR 00F3
ENCODING 243
SWIDTH 604 0
DWIDTH 21 0
BBX 19 28 1 0
BITMAP
001C00
003C00
003800
003800
007000
007000
00F000
000000
000000
03F800
0FFE00
1FFF00
3FFF80
3E0FC0
7C07C0
7803E0
7803E0
F801E0
F801E0
F801E0
7803E0
7803E0
7C07C0
3E0FC0
3FFF80
1FFF00
0FFE00
01F800
ENDCHAR
STARTCHAR 00F4
ENCODING 244
SWIDTH 604 0
DWIDTH 21 0
BBX 19 26 1 0
BITMAP
01F000
03F800
07BC00
0F1E00
0F0F00
000000
000000
03F800
0FFE00
1FFF00
3FFF80
3E0FC0
7C07C0
7803E0
7803E0
F801E0
F801E0
F801E0
7803E0
7803E0
7C07C0
3E0FC0
3FFF80
1FFF00
0FFE00
01F800
ENDCHAR
STARTCHAR 00F5
ENCODING 245
SWIDTH 604 0
DWIDTH 21 0
BBX 19 27 1 0
BITMAP
078000
0FC700
0FE700
0EFF00
0C7E00
001C00
000000
000000
03F800
0FFE00
1FFF00
3FFF80
3E0FC0
7C07C0
7803E0
7803E0
F801E0
F801E0
F801E0
7803E0
7803E0
7C07C0
3E0FC0
3FFF80
1FFF00
0FFE00
01F800
ENDCHAR
STARTCHAR 00F6
ENCODING 246
SWIDTH 604 0
DWIDTH 21 0
BBX 19 25 1 0
BITMAP
0F1E00
0F1E00
0F1E00
0F1E00
000000
000000
03F800
0FFE00
1FFF00
3FFF80
3E0FC0
7C07C0
7803E0
7803E0
F801E0
F801E0
F801E0
7803E0
7803E0
7C07C0
3E0FC0
3FFF80
1FFF00
0FFE00
01F800
ENDCHAR
STARTCHAR 00F7
ENCODING 247
SWIDTH 547 0
DWIDTH 19 0
BBX 15 15 2 5
BITMAP
0780
0780
0780
0780
0000
0000
FFFE
FFFE
FFFE
0000
0000
0780
0780
0780
0780
ENDCHAR
STARTCHAR 00F8
ENCODING 248
SWIDTH 604 0
DWIDTH 21 0
BBX 19 19 1 0
BITMAP
03F880
0FFFC0
1FFFE0
3FFFE0
3E0FC0
7C0FC0
781FE0
783FE0
F879E0
F8F1E0
FBE1E0
7FC3E0
7F83E0
7F07C0
3E0FC0
7FFF80
FFFF00
7FFE00
23F800
ENDCHAR
STARTCHAR 00F9
ENCODING 249
SWIDTH 633 0
DWIDTH 22 0
BBX 17 29 2 -1
BITMAP
070000
070000
038000
038000
03C000
01C000
000000
000000
000000
F00780
F00780
F00780
F00780
F00780
F00780
F00780
F00780
F00780
F00780
F00780
F00780
F80780
F80F80
F80F80
7E1F80
7FFF80
3FFB80
1FF380
07C000
ENDCHAR
STARTCHAR 00FA
ENCODING 250
SWIDTH 633 0
DWIDTH 22 0
BBX 17 29 2 -1
BITMAP
007800
007000
00F000
00E000
00E000
01C000
000000
000000
000000
F00780
F00780
F00780
F00780
F00780
F00780
F00780
F00780
F00780
F00780
F00780
F00780
F80780
F80F80
F80F80
7E1F80
7FFF80
3FFB80
1FF380
07C000
ENDCHAR
STARTCHAR 00FB
ENCODING 251
SWIDTH 633 0
DWIDTH 22 0
BBX 17 28 2 -1
BITMAP
03E000
03F000
07F800
0F3800
1E3C00
000200
000000
000000
F00780
F00780
F00780
F00780
F00780
F00780
F00780
F00780
F00780
F00780
F00780
F00780
F80780
F80F80
F80F80
7E1F80
7FFF80
3FFB80
1FF380
07C000
ENDCHAR
STARTCHAR 00FC
ENCODING 252
SWIDTH 633 0
DWIDTH 22 0
BBX 17 26 2 -1
BITMAP
1E3C00
1E3C00
1E3C00
1E3C00
000000
000000
F00780
F00780
F00780
F00780
F00780
F00780
F00780
F00780
F00780
F00780
F00780
F00780
F80780
F80F80
F80F80
7E1F80
7FFF80
3FFB80
1FF380
07C000
ENDCHAR
STARTCHAR 00FD
ENCODING 253
SWIDTH 547 0
DWIDTH 19 0
BBX 18 36 1 -8
BITMAP
003800
007800
007000
007000
00E000
00E000
000000
000000
000000
F003C0
F003C0
F80780
780780
7C0F80
3C0F00
3C0F00
3E1E00
1E1E00
1E3E00
0F3C00
0F3C00
0FF800
07F800
07F800
03F000
03F000
01F000
01E000
01E000
03C000
03C000
03C000
078000
078000
0F0000
0F0000
ENDCHAR
STARTCHAR 00FE
ENCODING 254
SWIDTH 604 0
DWIDTH 21 0
BBX 18 33 2 -8
BITMAP
F80000
F80000
F80000
F80000
F80000
F80000
FBF000
FFFC00
FFFE00
FFFF00
FC1F80
F80F80
F807C0
F007C0
F007C0
F003C0
F007C0
F007C0
F807C0
F80F80
FC1F80
FFFF00
FFFE00
FFFC00
FBF000
F80000
F80000
F80000
F80000
F80000
F80000
F80000
F80000
ENDCHAR
STARTCHAR 00FF
ENCODING 255
SWIDTH 547 0
DWIDTH 19 0
BBX 18 33 1 -8
BITMAP
1E1C00
1E1C00
1E1C00
1E1C00
000000
000000
F003C0
F003C0
F80780
780780
7C0F80
3C0F00
3C0F00
3E1E00
1E1E00
1E3E00
0F3C00
0F3C00
0FF800
07F800
07F800
03F000
03F000
01F000
01E000
01E000
03C000
03C000
03C000
078000
078000
0F0000
0F0000
ENDCHAR
ENDFONT
